<?xml version="1.0" standalone="no"?>
<!DOCTYPE svg PUBLIC "-//W3C//DTD SVG 20010904//EN"
 "http://www.w3.org/TR/2001/REC-SVG-20010904/DTD/svg10.dtd">
<svg version="1.0" xmlns="http://www.w3.org/2000/svg"
 width="257.000000pt" height="257.000000pt" viewBox="0 0 257.000000 257.000000"
 preserveAspectRatio="xMidYMid meet">
<metadata>
Created by potrace 1.14, written by Peter Selinger 2001-2017
</metadata>
<g transform="translate(0.000000,257.000000) scale(0.100000,-0.100000)"
fill="#000000" stroke="none">
<path d="M765 2448 c-19 -4 -49 -14 -64 -23 -41 -21 -100 -93 -111 -136 -7
-25 -10 -307 -8 -791 3 -696 4 -755 21 -785 24 -44 60 -79 110 -105 l42 -23
750 0 c849 0 811 -3 880 78 63 74 62 56 61 877 l-1 745 -27 46 c-28 48 -77 91
-125 111 -32 13 -1465 19 -1528 6z m1440 -227 c7 -1 11 -151 11 -466 0 -256
-2 -465 -4 -465 -2 0 -68 39 -147 86 l-144 86 -143 -86 -143 -87 -3 462 c-1
272 2 465 7 468 7 5 530 7 566 2z"/>
<path d="M118 1988 c0 -2 -2 -376 -3 -833 -2 -713 0 -837 13 -877 19 -62 86
-130 143 -147 34 -10 223 -13 864 -13 451 1 826 1 833 1 9 1 12 31 12 115 l0
113 -813 1 c-446 0 -814 1 -817 1 -3 1 -5 362 -5 803 0 442 -1 811 -3 821 -4
15 -18 17 -113 17 -60 0 -110 -1 -111 -2z"/>
</g>
</svg>
